<svg xmlns="http://www.w3.org/2000/svg" xmlns:xlink="http://www.w3.org/1999/xlink" version="1.1" id="Layer_1" x="0px" y="0px" width="72px" height="72px" viewBox="0 0 72 72" enable-background="new 0 0 72 72" xml:space="preserve">
<g>
	<path d="M53.823,31.094c-1.77,0-3.45,0.374-4.976,1.039L48.2,30.01l0.168-0.054c0.043-0.015,0.067-0.061,0.054-0.104l-0.042-0.129   c-0.013-0.043-0.061-0.067-0.104-0.053l-0.162,0.052l-0.658-2.146c-0.291-0.955-0.586-1.911-0.882-2.864l0.107-0.035   c0.044-0.014,0.067-0.061,0.056-0.104l-0.042-0.129c-0.014-0.042-0.062-0.067-0.104-0.053l-0.105,0.033l-0.047,0.015L45.965,23.1   h3.5c0.083,0,0.184,0.003,0.296,0.012l0.038-0.499l-0.036,0.499c0.731,0.053,3.117,0.392,3.117,2.523   c0,2.158-2.255,2.54-2.351,2.555l0.151,0.988c1.106-0.167,3.199-1.124,3.199-3.543c0-2.378-2.089-3.378-4.043-3.52l0,0   c-0.142-0.011-0.268-0.015-0.372-0.015h-3.83v0.065l-0.015-0.042l-1.098,0.348l0.819,2.318l-0.095,0.03   c-0.043,0.014-0.067,0.062-0.054,0.104l0.041,0.128c0.015,0.044,0.062,0.068,0.104,0.055l0.104-0.034   c0.046,0.14,0.091,0.276,0.137,0.415H25.409l-0.166-0.566l-0.11-0.377l-0.057,0.017l-1.056-3.656   c-0.029-0.112-0.097-0.339-0.646-0.594l0.12-0.006c0.211-0.011,0.498-0.13,0.654-0.271l0.752-0.678   c0.224,0.004,0.39,0.016,0.432,0.04c0.146,0.083,1.037,0.104,1.368,0.104c0.333,0,0.851,0.021,0.934,0.021s0.331-0.207-0.062-0.456   c-0.395-0.249-0.975-0.747-2.695-0.747s-4.851,0-5.101,0c-0.249,0-0.593-0.041-0.87-0.124c-0.324-0.097-1.493-0.165-1.679-0.083   c-0.188,0.083-0.153,0.283,0.166,0.582c0.214,0.199,0.59,0.557,0.801,0.662c0.164,0.083,0.746,0.316,1.372,0.467l0.331,0.367   c0.141,0.154,0.408,0.27,0.623,0.27c0.01,0,0.021,0,0.029-0.001l1.043-0.054c-0.008,0.049-0.012,0.099-0.012,0.151   c0,0.44,0.228,0.811,0.839,0.825c0.206,0.004,0.514-0.059,0.736-0.158c0.003,0.001,0.006,0.003,0.01,0.004l1.036,3.591l-0.103,0.03   l0.11,0.378l0.366,1.243c-0.005,0.01-0.01,0.018-0.015,0.025l-0.297,0.539l-0.595,1.075L22.48,30.26l-1.202,2.146   c-0.024,0.043-0.049,0.087-0.073,0.13c-1.736-0.917-3.712-1.442-5.812-1.442c-6.885,0-12.466,5.582-12.466,12.467   c0,6.886,5.581,12.466,12.466,12.466c5.063,0,9.413-3.023,11.364-7.358l2.779,0.34c0.424,0.168,0.883,0.268,1.367,0.268   c2.052,0,3.716-1.664,3.716-3.717c0-0.819-0.273-1.569-0.722-2.183l12.966-14.028l0.234,0.698l-0.164,0.052   c-0.044,0.015-0.068,0.062-0.054,0.105l0.042,0.129c0.012,0.043,0.061,0.066,0.104,0.053l0.167-0.054l0.749,2.238   c-3.919,2.101-6.585,6.234-6.585,10.991c0,6.886,5.581,12.466,12.467,12.466s12.466-5.58,12.466-12.466   C66.289,36.676,60.709,31.094,53.823,31.094z M22.838,20.088c-0.126-0.209-0.332-0.348-0.567-0.348   c-0.256,0-0.479,0.165-0.598,0.409l-1.137,0.058c-0.145,0.008-0.357-0.08-0.455-0.188l-0.104-0.114   c0.204,0.033,0.403,0.053,0.588,0.05c0.905-0.014,1.265-0.456,1.596-0.519c0.332-0.062,0.975-0.062,0.975-0.062   c0.235,0,0.869-0.021,1.397-0.022l-0.551,0.495c-0.113,0.104-0.347,0.199-0.501,0.207L22.838,20.088z M21.842,32.718l1.183-2.156   l1.195-2.149l0.597-1.074l0.01-0.016l4.373,14.845l-1.41,0.082c-0.418-4-2.733-7.426-6.024-9.39   C21.79,32.812,21.816,32.765,21.842,32.718z M28.501,47.565c0,0-0.397-0.412-0.602-1.035c-0.049-0.152-0.08-0.3-0.102-0.438   l1.654,0.262l0.274,0.043c-0.009,0.026-0.008,0.053-0.02,0.078l-0.458,0.967C29.093,47.774,28.755,47.829,28.501,47.565z    M16.509,42.718l1.83-3.506l1.158-2.171l1.168-2.164c0.145-0.268,0.291-0.534,0.437-0.802c2.884,1.74,4.913,4.746,5.301,8.255   l-9.771,0.568C16.6,42.829,16.562,42.763,16.509,42.718z M26.425,42.58c0.028,0.324,0.05,0.65,0.05,0.981   c0,0.354-0.021,0.702-0.053,1.047l-9.703-1.461c0,0,0-0.001-0.001-0.002L26.425,42.58z M29.662,44.705l-1.062-0.138   c-0.362-0.046-0.52-0.35-0.348-0.674c0,0,0.27-0.504,0.799-0.89c0.112-0.081,0.225-0.144,0.334-0.201l0.554,1.879   C29.851,44.707,29.757,44.717,29.662,44.705z M30.636,43.232l-0.201-0.683c0.184,0.074,0.286,0.258,0.237,0.505L30.636,43.232z    M30.902,45.053c0.329,0,0.597,0.268,0.597,0.597s-0.268,0.597-0.597,0.597c-0.33,0-0.598-0.268-0.598-0.597   S30.572,45.053,30.902,45.053z M27.854,43.443c-0.003-0.317-0.021-0.632-0.048-0.943l1.097-0.064   C28.49,42.701,28.133,43.042,27.854,43.443z M31.39,44.256c-0.021-0.046-0.047-0.09-0.057-0.142l-0.198-1.052   c-0.067-0.359,0.173-0.603,0.534-0.539c0,0,0.469,0.094,0.952,0.4L31.39,44.256z M15.393,54.643   c-6.119,0-11.081-4.961-11.081-11.082c0-6.12,4.962-11.082,11.081-11.082c1.854,0,3.597,0.461,5.132,1.265   c-0.151,0.268-0.301,0.537-0.453,0.804l-1.216,2.138l-1.227,2.131c-0.65,1.117-1.299,2.232-1.96,3.343l-0.197-0.001   c-0.022-0.002-0.045-0.003-0.068-0.003c-0.756,0-1.368,0.612-1.368,1.368c0,0.674,0.488,1.232,1.13,1.347l0.524-0.009   c0.345-0.072,0.641-0.275,0.836-0.555l9.711,1.538c-0.177,0.844-0.458,1.647-0.814,2.408l-10.131-1.24   c0.075-0.107,0.13-0.232,0.13-0.374c0-0.365-0.296-0.662-0.662-0.662c-0.365,0-0.662,0.297-0.662,0.662s0.297,0.662,0.662,0.662   c0.102,0,0.194-0.027,0.28-0.067l10.269,1.257C23.492,52.134,19.74,54.643,15.393,54.643z M26.872,48.431   c0.222-0.522,0.396-1.068,0.546-1.624c0.277,0.775,0.795,1.432,1.476,1.871L26.872,48.431z M32.068,48.463   c0,0-0.515,0.251-1.171,0.251c-0.655,0-1.17-0.251-1.17-0.251c-0.329-0.16-0.378-0.494-0.109-0.742l0.812-0.747   c0.021-0.02,0.05-0.028,0.073-0.044c0.123,0.038,0.252,0.063,0.388,0.063c0.143,0,0.273-0.04,0.402-0.081   c0.037,0.023,0.078,0.039,0.11,0.069l0.778,0.734C32.449,47.966,32.397,48.303,32.068,48.463z M34.025,45.348   c0,0,0.08,0.567-0.122,1.191c-0.204,0.623-0.601,1.035-0.601,1.035c-0.254,0.265-0.587,0.207-0.74-0.125l-0.459-1.004   c-0.025-0.055-0.031-0.114-0.041-0.172c0.099-0.183,0.167-0.383,0.171-0.605c0.051-0.057,0.106-0.109,0.176-0.147l0.939-0.514   C33.67,44.833,33.976,44.987,34.025,45.348z M33.562,43.901c0.174,0.322,0.016,0.621-0.348,0.664l-0.466,0.054l0.754-0.816   C33.54,43.862,33.562,43.901,33.562,43.901z M33.011,42.503c-0.6-0.414-1.324-0.66-2.107-0.66c-0.225,0-0.442,0.028-0.657,0.066   l-4.47-15.179h20.215c0.132,0.396,0.264,0.791,0.396,1.187l0.028,0.084L33.011,42.503z M53.823,54.643   c-6.121,0-11.083-4.961-11.083-11.082c0-4.145,2.279-7.752,5.649-9.653l0.681,2.029l0.45,1.336l0.112,0.334l0.032,0.095   l0.029,0.082l0.066,0.172c0.092,0.227,0.186,0.449,0.286,0.668c0.407,0.877,0.884,1.709,1.426,2.5   c0.27,0.395,0.555,0.781,0.863,1.15c0.155,0.185,0.315,0.365,0.488,0.54c0.168,0.175,0.35,0.344,0.554,0.498   c0.107,0.099,0.274,0.091,0.373-0.017c0.098-0.107,0.09-0.275-0.018-0.373c-0.01-0.009-0.023-0.005-0.034-0.012l0.003-0.003   c-0.322-0.286-0.615-0.645-0.886-1.01c-0.272-0.369-0.53-0.752-0.769-1.146c-0.48-0.788-0.914-1.606-1.265-2.449   c-0.088-0.21-0.172-0.424-0.245-0.638l-0.055-0.158l-0.028-0.083l-0.021-0.073l-0.103-0.338l-0.41-1.348l-0.665-2.192   c1.394-0.632,2.938-0.993,4.567-0.993c6.122,0,11.082,4.962,11.082,11.082C64.905,49.682,59.945,54.643,53.823,54.643z"/>
	<circle cx="15.942" cy="45.565" r="0.662"/>
</g>
</svg>
