<svg xmlns="http://www.w3.org/2000/svg" xmlns:xlink="http://www.w3.org/1999/xlink" version="1.1" x="0px" y="0px" viewBox="0 0 72 72" enable-background="new 0 0 72 72" xml:space="preserve"><path d="M54.604,27.275c-1.836,0-3.582,0.378-5.169,1.057l-0.443-1.451l0.168-0.054c0.044-0.015,0.068-0.062,0.055-0.106  l-0.042-0.128c-0.014-0.042-0.061-0.067-0.104-0.054l-0.162,0.054l-0.656-2.146c-0.292-0.955-0.586-1.911-0.883-2.864l0.106-0.036  c0.045-0.013,0.068-0.061,0.056-0.103l-0.042-0.131c-0.014-0.042-0.061-0.065-0.104-0.054l-0.106,0.034l-0.045,0.015l-0.474-1.338  h3.498c0.083,0,0.184,0.003,0.296,0.012c1.345,0.102,2.341,0.153,3.227,0.153c1.026,0,1.904-0.07,3.001-0.213  c0.274-0.036,0.467-0.286,0.432-0.56c-0.036-0.274-0.296-0.471-0.561-0.431c-1.985,0.259-3.168,0.269-6.021,0.054  c-0.141-0.011-0.269-0.015-0.373-0.015h-3.829c-0.12,0-0.226,0.048-0.312,0.118l-0.802,0.252l0.821,2.319l-0.097,0.031  c-0.042,0.014-0.066,0.06-0.053,0.104l0.042,0.128c0.013,0.043,0.061,0.069,0.104,0.055l0.105-0.034  c0.046,0.139,0.09,0.277,0.136,0.415h-20.17l-0.167-0.567l-0.11-0.378l-0.056,0.017l-1.057-3.653  c-0.029-0.113-0.098-0.339-0.646-0.593l0.119-0.007c0.211-0.014,0.499-0.131,0.655-0.272l0.751-0.678  c0.225,0.006,0.391,0.018,0.432,0.042c0.146,0.081,1.038,0.103,1.37,0.103c0.331,0,0.85,0.022,0.933,0.022s0.331-0.209-0.062-0.457  c-0.395-0.25-0.975-0.746-2.695-0.746s-4.852,0-5.101,0s-0.592-0.041-0.87-0.124c-0.324-0.099-1.492-0.168-1.679-0.084  c-0.188,0.084-0.153,0.282,0.165,0.58c0.215,0.2,0.591,0.559,0.803,0.664c0.163,0.082,0.744,0.316,1.371,0.467l0.331,0.365  c0.141,0.156,0.408,0.271,0.623,0.271c0.01,0,0.02,0,0.029,0l1.043-0.056c-0.008,0.05-0.012,0.1-0.012,0.151  c0,0.44,0.228,0.812,0.839,0.827c0.206,0.003,0.514-0.061,0.736-0.159c0.003,0.002,0.006,0.003,0.009,0.005l1.037,3.591l-0.104,0.03  l0.111,0.377l0.365,1.243c-0.004,0.009-0.009,0.018-0.014,0.025l-0.297,0.538l-0.595,1.076l-1.189,2.152l-0.938,1.674  c-1.836-0.973-3.927-1.529-6.149-1.529c-7.267,0-13.156,5.89-13.156,13.157c0,7.266,5.89,13.154,13.156,13.154  c5.604,0,10.378-3.509,12.273-8.445l1.271,0.363c0.223,0.142,0.461,0.266,0.72,0.358c1.892,0.68,3.976-0.304,4.654-2.194  c0.421-1.172,0.201-2.416-0.475-3.355l13.029-14.095l0.232,0.699l-0.165,0.052c-0.044,0.013-0.066,0.061-0.054,0.105l0.042,0.128  c0.012,0.043,0.062,0.067,0.104,0.052l0.168-0.052l0.526,1.574c-4.196,2.198-7.064,6.588-7.064,11.656  c0,7.266,5.891,13.154,13.156,13.154c7.269,0,13.157-5.889,13.157-13.154C67.761,33.165,61.872,27.275,54.604,27.275z   M23.629,16.959c-0.125-0.209-0.332-0.346-0.566-0.346c-0.256,0-0.479,0.164-0.599,0.407l-1.136,0.058  c-0.145,0.009-0.357-0.08-0.455-0.188l-0.104-0.112c0.204,0.031,0.403,0.052,0.588,0.048c0.905-0.013,1.264-0.455,1.596-0.518  c0.332-0.062,0.975-0.062,0.975-0.062c0.235,0,0.869-0.021,1.396-0.022l-0.549,0.495c-0.114,0.104-0.348,0.201-0.501,0.207  L23.629,16.959z M23.816,27.433l1.195-2.149l0.598-1.074l0.009-0.016l4.368,14.83l-0.721,0.007  c-0.448-4.223-2.898-7.837-6.378-9.905L23.816,27.433z M27.951,39.042L17.535,39.14l1.596-3.056l1.157-2.172l1.169-2.162  c0.267-0.496,0.537-0.988,0.807-1.481C25.343,32.114,27.515,35.309,27.951,39.042z M29.315,40.955  c0.1,0.017,0.199,0.061,0.286,0.161l0.705,0.817c0.003,0.004,0.004,0.009,0.007,0.012l-1.041-0.157  C29.301,41.515,29.305,41.234,29.315,40.955z M29.885,40.764c-0.318-0.162-0.363-0.495-0.096-0.736c0,0,0.16-0.135,0.409-0.281  l0.409,1.388L29.885,40.764z M29.305,39.703c-0.008-0.141-0.009-0.283-0.021-0.423l0.632-0.006  C29.697,39.396,29.494,39.539,29.305,39.703z M28.04,40.433c0,0.392-0.021,0.779-0.059,1.162l-10.471-1.577  c-0.045-0.156-0.097-0.332-0.21-0.43l0.103-0.197l10.579-0.099C28.019,39.668,28.04,40.048,28.04,40.433z M17.316,41.178  l10.479,1.659c-0.121,0.59-0.299,1.158-0.504,1.712l-10.43-2.977C17.039,41.471,17.2,41.345,17.316,41.178z M29.081,43.041  l0.895,0.142l-0.445,0.445c-0.197,0.197-0.438,0.197-0.604,0.037C28.978,43.456,29.039,43.252,29.081,43.041z M32.197,42.719  c-0.109,0.303-0.443,0.463-0.748,0.354c-0.304-0.108-0.461-0.445-0.352-0.749c0.107-0.303,0.442-0.46,0.746-0.352  C32.147,42.082,32.306,42.416,32.197,42.719z M32.651,40.621l0.065-0.406c0.055-0.332,0.327-0.471,0.621-0.335L32.651,40.621z   M32.293,40.055l-0.56,0.924c-0.01,0.016-0.025,0.025-0.036,0.04l-0.479-1.626c0.436-0.058,0.769-0.005,0.769-0.005  C32.342,39.445,32.479,39.747,32.293,40.055z M16.185,52.288c-6.547,0-11.854-5.309-11.854-11.855  c0-6.548,5.308-11.854,11.854-11.854c1.991,0,3.863,0.496,5.511,1.363c-0.276,0.493-0.552,0.986-0.832,1.477l-1.216,2.139  l-1.227,2.131c-0.65,1.116-1.299,2.233-1.96,3.344l-0.198-0.002c-0.021,0-0.044-0.002-0.067-0.002c-0.756,0-1.368,0.612-1.368,1.367  c0,0.674,0.488,1.233,1.13,1.348l0.524-0.01c0.005-0.001,0.009-0.004,0.013-0.005l10.711,3.057  C25.469,49.176,21.194,52.288,16.185,52.288z M28.692,44.503c0.146,0.211,0.309,0.41,0.498,0.588l-0.646-0.184  C28.594,44.772,28.647,44.64,28.692,44.503z M31.79,45.502c0,0-0.558,0.061-1.161-0.157c-0.604-0.216-0.995-0.618-0.995-0.618  c-0.251-0.256-0.187-0.58,0.145-0.722l0.997-0.421c0.025-0.011,0.053-0.008,0.079-0.016c0.214,0.169,0.479,0.276,0.771,0.289  c0.014,0.021,0.033,0.035,0.045,0.057l0.474,0.936C32.307,45.17,32.146,45.463,31.79,45.502z M34.625,43.28  c0,0-0.113,0.546-0.508,1.056c-0.392,0.506-0.894,0.754-0.894,0.754c-0.321,0.158-0.61-0.002-0.642-0.359l-0.093-1.078  c-0.003-0.031,0.009-0.061,0.011-0.091c0.202-0.158,0.356-0.361,0.441-0.609c0.046-0.018,0.088-0.043,0.138-0.05l1.035-0.163  C34.469,42.686,34.697,42.928,34.625,43.28z M34.678,41.79c0.053,0.354-0.191,0.58-0.541,0.498l-1.054-0.246  c-0.014-0.003-0.024-0.013-0.037-0.017l1.201-1.299C34.596,41.25,34.678,41.79,34.678,41.79z M33.731,39.452  c-0.253-0.174-0.522-0.329-0.825-0.438c-0.613-0.22-1.242-0.25-1.842-0.146l-4.496-15.268h20.214  c0.133,0.396,0.265,0.792,0.396,1.187l0.028,0.083L33.731,39.452z M54.604,52.288c-6.547,0-11.854-5.309-11.854-11.855  c0-4.492,2.498-8.398,6.18-10.409l0.037,0.11l0.896,2.673l0.45,1.337l0.112,0.334l0.032,0.095l0.031,0.083l0.065,0.172  c0.092,0.228,0.186,0.448,0.286,0.668c0.406,0.876,0.884,1.709,1.426,2.5c0.27,0.392,0.555,0.782,0.862,1.15  c0.156,0.183,0.316,0.364,0.488,0.54c0.168,0.174,0.351,0.343,0.555,0.498c0.107,0.099,0.274,0.091,0.373-0.017  c0.098-0.107,0.09-0.275-0.018-0.373c-0.01-0.009-0.023-0.005-0.035-0.012l0.004-0.004c-0.322-0.286-0.615-0.646-0.887-1.011  c-0.272-0.368-0.53-0.751-0.769-1.144c-0.479-0.789-0.912-1.607-1.265-2.449c-0.087-0.212-0.171-0.425-0.245-0.639l-0.055-0.158  l-0.027-0.084l-0.021-0.072l-0.104-0.337l-0.409-1.348l-0.818-2.698l-0.075-0.247c1.464-0.647,3.08-1.013,4.784-1.013  c6.549,0,11.855,5.307,11.855,11.854C66.459,46.979,61.152,52.288,54.604,52.288z"></path></svg>